<?xml version="1.0" encoding="UTF-8"?>
<mxfile host="app.diagrams.net">
  <diagram name="Gerenciar Tarefas Diárias" id="bpmn1">
    <mxGraphModel dx="1010" dy="600" grid="1" gridSize="10" guides="1" tooltips="1" connect="1" arrows="1" fold="1" page="1" pageScale="1" pageWidth="827" pageHeight="1169" math="0" shadow="0">
      <root>
        <mxCell id="0"/>
        <mxCell id="1" parent="0"/>

        <!-- Evento de Início -->
        <mxCell id="start" value="Início" style="ellipse;whiteSpace=wrap;html=1;aspect=fixed;" vertex="1" parent="1">
          <mxGeometry x="40" y="150" width="60" height="60" as="geometry"/>
        </mxCell>

        <!-- Exibir Menu -->
        <mxCell id="menu" value="Exibir Menu" style="rounded=1;whiteSpace=wrap;html=1;" vertex="1" parent="1">
          <mxGeometry x="150" y="160" width="120" height="40" as="geometry"/>
        </mxCell>

        <!-- Gateway (Escolher Opção) -->
        <mxCell id="gateway" value="Escolher Opção" style="rhombus;whiteSpace=wrap;html=1;" vertex="1" parent="1">
          <mxGeometry x="320" y="150" width="80" height="80" as="geometry"/>
        </mxCell>

        <!-- Adicionar Tarefa -->
        <mxCell id="add" value="Adicionar Tarefa" style="rounded=1;whiteSpace=wrap;html=1;" vertex="1" parent="1">
          <mxGeometry x="480" y="60" width="140" height="40" as="geometry"/>
        </mxCell>

        <!-- Listar Tarefas -->
        <mxCell id="list" value="Listar Tarefas" style="rounded=1;whiteSpace=wrap;html=1;" vertex="1" parent="1">
          <mxGeometry x="480" y="140" width="140" height="40" as="geometry"/>
        </mxCell>

        <!-- Marcar Tarefa -->
        <mxCell id="mark" value="Marcar como Concluída" style="rounded=1;whiteSpace=wrap;html=1;" vertex="1" parent="1">
          <mxGeometry x="480" y="220" width="160" height="40" as="geometry"/>
        </mxCell>

        <!-- Fim -->
        <mxCell id="end" value="Fim" style="ellipse;whiteSpace=wrap;html=1;aspect=fixed;" vertex="1" parent="1">
          <mxGeometry x="720" y="150" width="60" height="60" as="geometry"/>
        </mxCell>

        <!-- Conexões -->
        <mxCell id="edge1" edge="1" parent="1" source="start" target="menu">
          <mxGeometry relative="1" as="geometry"/>
        </mxCell>
        <mxCell id="edge2" edge="1" parent="1" source="menu" target="gateway">
          <mxGeometry relative="1" as="geometry"/>
        </mxCell>
        <mxCell id="edge3" edge="1" parent="1" source="gateway" target="add">
          <mxGeometry relative="1" as="geometry"/>
        </mxCell>
        <mxCell id="edge4" edge="1" parent="1" source="gateway" target="list">
          <mxGeometry relative="1" as="geometry"/>
        </mxCell>
        <mxCell id="edge5" edge="1" parent="1" source="gateway" target="mark">
          <mxGeometry relative="1" as="geometry"/>
        </mxCell>
        <mxCell id="edge6" edge="1" parent="1" source="gateway" target="end">
          <mxGeometry relative="1" as="geometry"/>
        </mxCell>

        <!-- Volta para o menu -->
        <mxCell id="edge7" edge="1" parent="1" source="add" target="menu">
          <mxGeometry relative="1" as="geometry"/>
        </mxCell>
        <mxCell id="edge8" edge="1" parent="1" source="list" target="menu">
          <mxGeometry relative="1" as="geometry"/>
        </mxCell>
        <mxCell id="edge9" edge="1" parent="1" source="mark" target="menu">
          <mxGeometry relative="1" as="geometry"/>
        </mxCell>

      </root>
    </mxGraphModel>
  </diagram>
</mxfile>
